# xmcd
#
# Track frame offsets: 
#        150
#        14716
#        33898
#        44118
#        59257
#        76138
#        95948
#        111259
#        124591
#        136861
#
# Disc length: 2023 seconds
#
# Revision: 0
# Processed by: cddbd v1.5.2PL0 Copyright (c) Steve Scherf et al.
# Submitted via: ExactAudioCopyFreeDBPlugin 1.0
#
DISCID=8807e50a
DTITLE=Vaeltava vitsaus - Vaeltava vitsaus
DYEAR=2017
DGENRE=Country
TTITLE0=Vaeltava vitsaus
TTITLE1=Jenni
TTITLE2=Boogiemies
TTITLE3=Toiveunta
TTITLE4=Elämän valttikortit
TTITLE5=Nuo tyypit tuolla
TTITLE6=Tänään repee raittius
TTITLE7=Yölamppu
TTITLE8=Tie hukkaan
TTITLE9=Risa sydän
EXTD=
EXTT0=
EXTT1=
EXTT2=
EXTT3=
EXTT4=
EXTT5=
EXTT6=
EXTT7=
EXTT8=
EXTT9=
PLAYORDER=
